Coordinates
version=1
nRows=18
nColumns=63
inDegrees=yes

Units are S.I. units (second, meters, Newtons, ...)
If the header above contains a line with 'inDegrees', this indicates whether rotational values are in degrees (yes) or radians (no).

endheader
time	pelvis_tilt	pelvis_list	pelvis_rotation	pelvis_tx	pelvis_ty	pelvis_tz	hip_flexion_r	hip_adduction_r	hip_rotation_r	knee_angle_r	knee_angle_r_beta	ankle_angle_r	subtalar_angle_r	mtp_angle_r	hip_flexion_l	hip_adduction_l	hip_rotation_l	knee_angle_l	knee_angle_l_beta	ankle_angle_l	subtalar_angle_l	mtp_angle_l	L5_S1_Flex_Ext	L5_S1_Lat_Bending	L5_S1_axial_rotation	L4_L5_Flex_Ext	L4_L5_Lat_Bending	L4_L5_axial_rotation	L3_L4_Flex_Ext	L3_L4_Lat_Bending	L3_L4_axial_rotation	L2_L3_Flex_Ext	L2_L3_Lat_Bending	L2_L3_axial_rotation	L1_L2_Flex_Ext	L1_L2_Lat_Bending	L1_L2_axial_rotation	L1_T12_Flex_Ext	L1_T12_Lat_Bending	L1_T12_axial_rotation	Abs_r3	Abs_r2	Abs_r1	Abs_t1	Abs_t2	neck_flexion	neck_bending	neck_rotation	arm_flex_r	arm_add_r	arm_rot_r	elbow_flex_r	pro_sup_r	wrist_flex_r	wrist_dev_r	arm_flex_l	arm_add_l	arm_rot_l	elbow_flex_l	pro_sup_l	wrist_flex_l	wrist_dev_l
0.920000	1.015482	-1.880102	94.291168	0.467921	0.807277	1.016662	-1.981925	2.134583	4.680187	5.208656	0.090908	15.259676	-4.516475	0.000000	-2.237627	-4.095803	-15.912818	6.387125	0.111476	21.365021	13.894637	0.000000	-0.144017	0.118260	3.386228	-0.267455	0.157286	3.597868	-0.236606	0.287538	3.597868	-0.164597	0.287538	2.962950	-0.133735	0.241156	2.751311	-0.082292	0.183185	2.539671	-1.028702	1.337785	18.833186	0.000000	0.000000	18.732335	-6.084660	-9.537633	54.922601	-9.277926	32.665284	98.958542	66.842925	-7.038831	17.670342	36.769443	-7.408084	9.157611	104.653713	83.930925	-8.399871	17.419921
0.940000	1.017000	-1.897642	94.202775	0.467409	0.806920	1.017023	-1.720547	2.097966	4.365937	5.626750	0.098205	15.461797	-4.026869	0.000000	-2.161923	-4.084953	-16.744225	6.555039	0.114407	21.587830	14.434879	0.000000	-0.138921	0.111286	3.471628	-0.257990	0.148010	3.688605	-0.228233	0.270580	3.688605	-0.158773	0.270580	3.037674	-0.129002	0.226934	2.820698	-0.079379	0.172382	2.603721	-0.992298	1.258888	19.308153	0.000000	0.000000	18.717076	-6.360934	-9.080561	58.767910	-7.738236	30.884959	99.040632	69.232426	-7.956912	15.264877	40.547317	-7.868866	7.539920	106.117456	84.591641	-7.050384	15.995043
0.960000	0.981194	-1.939221	94.057685	0.466937	0.806343	1.017299	-1.403628	2.027949	4.204248	6.093134	0.106345	15.705200	-3.715386	0.000000	-2.079290	-4.032851	-17.602621	6.724983	0.117373	21.817723	14.965089	0.000000	-0.128635	0.097598	3.541166	-0.238888	0.129805	3.762489	-0.211334	0.237300	3.762489	-0.147017	0.237300	3.098520	-0.119450	0.199022	2.877198	-0.073502	0.151179	2.655875	-0.918826	1.104049	19.694904	0.000000	0.000000	18.640965	-6.371869	-8.045327	62.506359	-6.159222	29.462457	98.828889	72.432445	-8.766171	12.758332	44.053439	-8.317227	5.767745	107.337753	85.391357	-5.766444	14.204857
0.980000	0.942888	-1.984149	93.851874	0.466493	0.805600	1.017500	-1.040363	1.962918	4.081405	6.624508	0.115619	16.037141	-3.399958	0.000000	-2.008401	-3.979666	-18.491153	6.893635	0.120317	22.050415	15.468277	0.000000	-0.115039	0.081980	3.603248	-0.213640	0.109034	3.828450	-0.188998	0.199327	3.828450	-0.131478	0.199327	3.152842	-0.106826	0.167174	2.927639	-0.065733	0.126988	2.702436	-0.821715	0.927379	20.040182	0.000000	0.000000	18.467778	-6.200278	-6.551382	65.895275	-4.544843	28.051717	98.328361	76.388458	-9.268190	10.314123	47.165372	-8.685825	3.939250	108.381999	86.029159	-4.825419	12.179503
1.000000	0.870717	-2.067909	93.639135	0.466041	0.804704	1.017665	-0.599583	1.872356	4.004792	7.215065	0.125927	16.417677	-3.202382	0.000000	-1.903851	-3.889068	-19.315278	7.055609	0.123144	22.266704	15.919335	0.000000	-0.096626	0.060404	3.653325	-0.179444	0.080337	3.881658	-0.158746	0.146866	3.881658	-0.110434	0.146866	3.196659	-0.089727	0.123176	2.968327	-0.055212	0.093566	2.739994	-0.690188	0.683301	20.318698	0.000000	0.000000	18.170192	-5.710391	-4.479788	68.755696	-2.886844	26.371631	97.574611	80.989778	-9.510880	8.092938	49.860560	-9.001951	2.175675	109.233057	86.461633	-4.556988	9.698542
1.020000	0.769776	-2.194828	93.436424	0.465542	0.803700	1.017862	-0.068248	1.761141	3.932418	7.877824	0.137494	16.824310	-3.101088	0.000000	-1.748362	-3.761944	-20.013917	7.209592	0.125831	22.469184	16.279280	0.000000	-0.074768	0.034055	3.698808	-0.138852	0.045293	3.929984	-0.122837	0.082800	3.929984	-0.085453	0.082800	3.236457	-0.069430	0.069444	3.005282	-0.042723	0.052750	2.774106	-0.534063	0.385232	20.571661	0.000000	0.000000	17.764414	-4.957740	-1.961250	71.015635	-1.207698	24.306152	96.625292	85.544511	-9.893041	6.222782	52.163130	-9.218194	0.544417	109.905490	86.711423	-5.031666	6.872364
1.040000	0.638393	-2.363877	93.266027	0.464955	0.802616	1.018179	0.552823	1.627459	3.853870	8.616447	0.150385	17.222807	-3.111752	0.000000	-1.535300	-3.592177	-20.528563	7.341330	0.128130	22.658065	16.515001	0.000000	-0.051027	0.003243	3.745151	-0.094762	0.004314	3.979223	-0.083832	0.007886	3.979223	-0.058318	0.007886	3.277007	-0.047383	0.006614	3.042935	-0.029157	0.005024	2.808863	-0.364479	0.036690	20.829408	0.000000	0.000000	17.268378	-4.022297	0.806492	72.722722	0.431688	22.023071	95.626157	88.712448	-11.498081	4.623393	54.154594	-9.310285	-0.885468	110.392811	86.893613	-6.180750	3.899673
1.060000	0.475491	-2.575190	93.128100	0.464302	0.801438	1.018703	1.269783	1.477720	3.801309	9.446813	0.164878	17.574402	-3.273459	0.000000	-1.245829	-3.386154	-20.864641	7.469808	0.130373	22.865085	16.626582	0.000000	-0.026533	-0.031717	3.798897	-0.049274	-0.042183	4.036328	-0.043591	-0.077116	4.036328	-0.030324	-0.077116	3.324035	-0.024638	-0.064677	3.086604	-0.015161	-0.049129	2.849173	-0.189522	-0.358787	21.128327	0.000000	0.000000	16.705124	-2.995731	3.646129	73.948595	2.018641	19.610402	94.668061	90.350049	-14.182404	2.976563	55.910534	-9.304501	-2.056669	110.718937	87.077227	-7.907406	0.951228
1.080000	0.280739	-2.826863	93.065958	0.463574	0.800146	1.019463	2.068166	1.312799	3.747877	10.358778	0.180795	17.856923	-3.609423	0.000000	-0.875071	-3.149612	-21.000080	7.593315	0.132528	23.100202	16.639960	0.000000	-0.003382	-0.072251	3.857784	-0.006282	-0.096094	4.098895	-0.005557	-0.175671	4.098895	-0.003866	-0.175671	3.375561	-0.003141	-0.147334	3.134449	-0.001933	-0.111917	2.893338	-0.024161	-0.817319	21.455835	0.000000	0.000000	16.125385	-1.983565	6.259313	74.750305	3.489585	17.158972	93.796526	90.870234	-17.144570	1.299776	57.467604	-9.256266	-2.911461	110.945097	87.323840	-10.040882	-1.979630
1.100000	0.074404	-3.137731	93.128214	0.462722	0.798668	1.020466	2.961498	1.131666	3.642061	11.350979	0.198112	18.088943	-4.093155	0.000000	-0.380003	-2.883165	-20.819576	7.747158	0.135213	23.363535	16.418773	0.000000	0.018781	-0.116584	3.904984	0.034878	-0.155057	4.149045	0.030855	-0.283464	4.149045	0.021465	-0.283464	3.416861	0.017440	-0.237739	3.172799	0.010731	-0.180589	2.928738	0.134151	-1.318827	21.718348	0.000000	0.000000	15.603287	-1.014889	8.578601	75.235769	4.807208	14.894656	93.070529	90.398984	-19.537412	-0.350468	58.785792	-9.225839	-3.542993	111.192410	87.711962	-12.294677	-4.979801
1.120000	-0.142200	-3.521462	93.311698	0.461804	0.796932	1.021658	3.957853	0.940825	3.494885	12.414337	0.216671	18.311720	-4.718337	0.000000	0.261444	-2.608229	-20.438459	7.966770	0.139046	23.676814	16.073790	0.000000	0.040346	-0.166364	3.937051	0.074926	-0.221264	4.183116	0.066284	-0.404496	4.183116	0.046111	-0.404496	3.444919	0.037465	-0.339249	3.198854	0.023053	-0.257697	2.952788	0.288184	-1.881938	21.896695	0.000000	0.000000	15.191734	-0.149486	10.429147	75.484030	5.971952	12.880977	92.549432	90.061605	-20.856714	-1.899847	59.864299	-9.252826	-3.951428	111.499928	88.197368	-14.660642	-8.255927
1.140000	-0.362504	-3.985538	93.657785	0.460849	0.794858	1.023044	5.060693	0.728343	3.248528	13.542631	0.236363	18.602544	-5.432208	0.000000	1.075329	-2.321158	-19.820281	8.292284	0.144728	24.041522	15.562507	0.000000	0.060603	-0.222361	3.938817	0.112546	-0.295740	4.184993	0.099565	-0.540647	4.184993	0.069263	-0.540647	3.446465	0.056276	-0.453438	3.200289	0.034629	-0.344437	2.954113	0.432882	-2.515387	21.906519	0.000000	0.000000	14.950492	0.603934	11.747040	75.560724	6.991386	11.227466	92.319821	89.998759	-21.459779	-3.386207	60.716342	-9.335243	-4.187032	111.884701	88.733294	-17.039607	-11.753004
1.160000	-0.559495	-4.525875	94.184100	0.459897	0.792383	1.024641	6.260465	0.517244	2.941497	14.714322	0.256813	18.988840	-6.279182	0.000000	2.079010	-2.049754	-18.950653	8.766034	0.152996	24.482610	14.847853	0.000000	0.079119	-0.283318	3.909653	0.146933	-0.376813	4.154006	0.129985	-0.688859	4.154006	0.090426	-0.688859	3.420946	0.073470	-0.577742	3.176593	0.045209	-0.438859	2.932239	0.565142	-3.204949	21.744315	0.000000	0.000000	14.902716	1.201751	12.378641	75.479248	7.831249	9.906364	92.388941	89.550559	-21.511489	-4.756828	61.364893	-9.442346	-4.222022	112.362271	89.273602	-19.407859	-15.208163
1.180000	-0.697791	-5.138821	94.937610	0.458907	0.789484	1.026483	7.560626	0.307016	2.434152	15.920890	0.277872	19.530259	-7.105360	0.000000	3.300844	-1.791475	-17.845676	9.429818	0.164581	25.007766	13.988119	0.000000	0.096589	-0.344489	3.840591	0.179376	-0.458170	4.080628	0.158686	-0.837591	4.080628	0.110392	-0.837591	3.360517	0.089693	-0.702482	3.120480	0.055191	-0.533614	2.880443	0.689926	-3.896929	21.360215	0.000000	0.000000	15.052579	1.610271	12.394666	75.271616	8.469385	8.911661	92.735893	89.325742	-21.434887	-5.997883	61.770433	-9.517020	-4.205106	113.018631	89.689753	-21.349802	-18.110631
1.200000	-0.824377	-5.837178	95.814884	0.458039	0.786174	1.028509	8.967933	0.079081	1.869278	17.164755	0.299581	20.247208	-7.906601	0.000000	4.729417	-1.548196	-16.653795	10.289312	0.179582	25.636784	13.066133	0.000000	0.110976	-0.412474	3.755211	0.206093	-0.548591	3.989912	0.182322	-1.002890	3.989912	0.126834	-1.002890	3.285810	0.103052	-0.841117	3.051109	0.063411	-0.638923	2.816408	0.792687	-4.665991	20.885358	0.000000	0.000000	15.392757	1.895475	11.826086	74.950902	8.918002	8.085108	93.319622	89.178675	-21.112125	-7.030166	61.997370	-9.523525	-4.050763	113.827108	89.883741	-23.194591	-20.423254
1.220000	-0.857373	-6.590516	96.887950	0.457191	0.782513	1.030697	10.449001	-0.113186	1.165555	18.402909	0.321191	21.098498	-8.670998	0.000000	6.374957	-1.343594	-15.213783	11.372618	0.198490	26.357588	11.966245	0.000000	0.121323	-0.477146	3.648828	0.225309	-0.634605	3.876880	0.199322	-1.160133	3.876880	0.138660	-1.160133	3.192724	0.112661	-0.972997	2.964673	0.069324	-0.739100	2.736621	0.866600	-5.397574	20.293686	0.000000	0.000000	15.898661	1.939467	10.626333	74.568475	9.158786	7.380123	94.091281	89.163453	-20.473628	-7.931470	62.043109	-9.320959	-3.932918	114.794315	89.909123	-24.428236	-21.870182
1.240000	-0.761903	-7.389718	98.139281	0.456344	0.778551	1.032974	11.994453	-0.256792	0.304554	19.618566	0.342409	22.069648	-9.323025	0.000000	8.233911	-1.182950	-13.520058	12.681070	0.221326	27.176955	10.696176	0.000000	0.128942	-0.533472	3.523475	0.239458	-0.709518	3.743692	0.211838	-1.297085	3.743692	0.147368	-1.297085	3.083040	0.119735	-1.087857	2.862823	0.073677	-0.826349	2.642606	0.921018	-6.034746	19.596509	0.000000	0.000000	16.555991	1.720650	8.920587	74.167439	9.212774	6.830406	94.987539	89.193914	-19.497212	-8.883069	61.896471	-8.841718	-3.981433	115.918584	89.783889	-24.755673	-22.412704
1.260000	-0.549229	-8.223228	99.496553	0.455542	0.774381	1.035192	13.573043	-0.354028	-0.652872	20.793284	0.362911	23.126809	-9.832535	0.000000	10.252444	-1.064744	-11.656978	14.171535	0.247340	28.103415	9.318670	0.000000	0.132922	-0.581965	3.388457	0.246849	-0.774014	3.600235	0.218377	-1.414990	3.600235	0.151916	-1.414990	2.964900	0.123431	-1.186743	2.753121	0.075952	-0.901464	2.541342	0.949448	-6.583307	18.845579	0.000000	0.000000	17.341811	1.270197	6.844038	73.738588	9.114903	6.458768	95.993272	89.253869	-18.231263	-9.985443	61.536034	-8.103038	-4.247392	117.173076	89.683033	-24.120839	-22.276846
